<?xml version="1.0" encoding="utf-8"?>
<!DOCTYPE svg PUBLIC "-//W3C//DTD SVG 1.0//EN" "http://www.w3.org/TR/2001/REC-SVG-20010904/DTD/svg10.dtd">
<svg version="1.0" xmlns="http://www.w3.org/2000/svg" width="7167px" height="7167px" viewBox="0 0 7167 7167" preserveAspectRatio="xMidYMid meet">
 <g fill="#000000">
  <path d="M0 3581.50 l0 -3581.50 3581.50 0 3581.50 0 0 3581.50 0 3581.50 -3581.50 0 -3581.50 0 0 -3581.50z m3939.45 722.30 c28.80 -97.19 55.19 -279.96 62.39 -436.34 l2.80 -55.59 70.39 -57.59 c198.77 -162.38 399.94 -306.76 427.54 -306.76 12 0 12.80 0.80 12.80 13.60 0 11.60 -3.20 15.60 -24.80 32.80 -52.39 40.79 -151.18 130.38 -153.18 138.78 -1.20 4.80 -10.80 51.59 -21.60 103.99 -21.60 106.79 -21.60 116.78 -1.20 160.38 24.40 51.19 74.79 89.19 130.78 98.39 58.39 9.60 165.18 -0.40 201.97 -19.20 34 -17.20 41.59 -33.20 60.39 -123.58 8.40 -41.19 14.80 -75.19 14.40 -75.59 -0.40 -0.40 -13.20 2.40 -28.80 6.40 -37.19 10 -87.19 10.40 -105.99 0.80 -21.60 -10.40 -28 -27.60 -28 -73.19 0 -21.20 2.80 -54.39 6 -73.99 4.80 -28.40 45.19 -198.37 66.39 -278.36 l4 -15.20 88.39 -0.80 88.39 -1.20 22.80 -97.99 22.80 -97.99 -89.59 -1.20 -89.19 -0.80 0 -14 c0 -7.60 8 -48.39 18 -90.39 10 -41.99 18 -78.79 18 -81.99 0 -4.80 -17.60 -5.60 -103.19 -5.60 -101.99 0 -103.59 0 -111.58 9.20 -4.40 4.80 -54.39 70.79 -111.58 146.78 l-103.19 137.58 -9.20 62.39 c-4.80 34 -9.20 64.39 -9.20 67.19 0 3.20 -8.80 4.80 -30 4.80 -38.79 0 -133.58 9.60 -197.97 20.40 -163.58 26.80 -352.35 82.39 -533.93 156.38 -48.39 20 -94.79 36.79 -102.79 37.99 -14.80 2 -15.20 2 -15.20 -11.60 0 -12.40 2.80 -15.60 33.20 -37.99 168.78 -125.18 395.14 -228.37 563.92 -257.16 35.60 -6.40 39.59 -12 50.39 -68.79 15.60 -83.99 18.40 -119.18 18.40 -225.17 0 -111.58 -1.60 -119.58 -20 -124.38 -27.60 -6.80 -141.58 44.79 -235.97 106.79 -329.95 216.37 -640.31 583.52 -816.69 965.47 -45.99 99.59 -59.19 133.58 -53.59 139.18 6 6 9.60 3.60 124.38 -69.19 283.16 -179.57 490.73 -286.76 689.10 -355.55 83.59 -28.80 232.37 -64.39 269.16 -64.39 8 0 9.60 2 9.60 13.20 l0 13.20 -72.79 33.60 c-192.37 87.59 -435.14 219.97 -435.14 236.37 0 2.40 62.39 71.19 139.18 152.78 76.39 81.99 169.18 181.57 206.37 221.57 37.19 40.39 68.79 71.99 70.79 70.79 2 -0.80 7.20 -14.40 11.60 -29.20z m-1811.75 -46.39 c0 -3.20 75.99 -358.75 78.39 -366.75 3.60 -12 26.80 -9.20 48.39 6 84.39 59.59 193.17 89.59 283.96 78.79 108.78 -13.20 205.57 -62.79 284.36 -145.98 83.99 -88.79 132.78 -201.57 142.78 -329.95 5.20 -63.59 -10.40 -153.98 -34 -202.77 -55.19 -112.78 -199.57 -191.57 -323.15 -176.78 -68.79 8.80 -147.18 38.79 -209.97 81.19 -17.20 11.60 -31.20 18.40 -38.79 18.40 -14.80 0 -15.20 -5.60 -4.40 -56.79 l7.20 -35.20 -108.78 0 -108.78 0 -2.40 11.20 c-4.40 21.20 -223.17 1039.06 -231.17 1073.45 -4 19.20 -7.60 37.99 -7.60 41.19 0 5.20 14.80 6 111.98 6 61.59 0 111.98 -0.80 111.98 -2z m-771.89 -262.36 c167.58 -20.80 318.76 -101.19 422.34 -224.37 56.79 -67.99 100.39 -145.58 124.78 -223.17 6.80 -20.80 44.79 -188.37 84.39 -371.95 39.99 -183.57 73.59 -337.15 74.79 -340.75 2 -6.80 -5.60 -7.20 -123.58 -7.20 l-125.58 0 -6.40 31.20 c-3.60 16.80 -31.60 155.18 -62.39 306.76 -30.80 151.98 -60.39 298.36 -66.39 325.95 -8 39.19 -14.80 59.19 -30.80 91.99 -18 37.19 -24.80 46.39 -58.79 80.39 -32.80 32.80 -43.99 41.19 -76.39 56.79 -54.39 26.80 -89.59 34.80 -153.58 34.80 -80.79 0 -119.58 -13.20 -162.78 -55.99 -38.79 -38.39 -55.59 -81.99 -55.59 -144.38 0 -35.99 6.40 -68.79 73.99 -381.55 40.79 -188.37 73.99 -343.15 73.99 -344.35 0 -0.80 -56.39 -1.60 -124.78 -1.60 l-125.18 0 -75.99 377.15 c-74.79 371.15 -75.99 377.55 -75.59 424.74 0.40 39.19 2.40 54.39 11.20 83.99 43.99 147.98 159.18 253.16 307.56 279.96 35.99 6.40 105.99 7.20 150.78 1.60z m3759.08 -7.60 c40.79 -10 91.19 -33.20 130.78 -59.99 20 -13.60 33.20 -20 41.99 -20 l12.80 0 -2.80 39.99 -2.40 39.99 105.99 0 105.99 0 2.40 -10.80 c1.20 -6.40 5.60 -24.80 10 -41.19 15.20 -62.79 52.79 -234.77 78.39 -359.95 25.20 -121.58 26.80 -133.58 27.20 -183.97 0 -61.99 -3.60 -79.59 -27.20 -125.18 -30.80 -60.79 -85.59 -103.19 -151.98 -118.78 -156.38 -36.79 -314.36 -20.80 -459.14 46.39 l-30.40 14.40 17.60 74.39 c9.60 41.19 18.40 76.79 19.20 79.59 1.20 3.20 10.80 1.60 32.80 -6.40 109.98 -40.39 231.17 -46.39 299.16 -14.80 57.99 26.80 78.39 74.39 59.59 137.98 l-6 21.20 -18.80 -2 c-10.40 -0.80 -33.20 -5.20 -50.79 -10 -48.79 -12.80 -108.78 -18.40 -169.98 -15.60 -116.78 5.20 -203.97 38.79 -269.56 104.79 -27.60 27.60 -43.59 50.79 -62.39 91.19 -71.19 153.58 -0.80 293.56 163.18 324.75 39.19 7.60 99.59 4.80 144.38 -6z m734.70 -111.98 c49.59 -245.17 66.39 -299.16 111.58 -359.15 51.19 -68.39 144.38 -112.78 236.37 -112.78 14 0 25.60 -0.80 25.60 -2 0 -1.20 11.60 -54.79 26 -118.78 14.40 -63.99 25.20 -119.18 24 -122.38 -5.20 -13.60 -107.58 6 -155.18 29.60 -32.40 16.40 -67.19 42.79 -91.99 69.19 -18 19.60 -24.80 24.40 -34.40 24.40 -11.20 0 -12.40 -1.20 -12.40 -12 0 -6.40 3.60 -30.40 8 -52.79 4.40 -22.80 8 -42.39 8 -43.99 0 -2 -51.99 -3.20 -115.58 -3.20 -106.79 0 -115.98 0.40 -117.98 7.20 -1.20 3.60 -22 97.59 -46.39 208.77 -57.99 262.76 -127.58 577.92 -131.58 597.12 l-3.60 14.80 122.38 -0.80 121.98 -1.20 25.20 -121.98z m-2599.64 -501.13 c39.99 -53.59 69.99 -97.19 67.19 -97.99 -7.60 -2 -100.79 14 -171.58 29.20 -67.19 14.40 -133.98 34 -135.18 39.19 -0.80 3.60 162.38 130.38 165.18 127.98 1.20 -0.80 34.40 -45.19 74.39 -98.39z"/>
  <path d="M2408.86 3781.47 c-34 -7.60 -62.79 -23.60 -89.59 -50.39 -47.59 -47.59 -65.99 -124.78 -49.19 -206.37 20.80 -101.19 101.19 -182.37 201.57 -203.57 38.79 -8.40 96.79 -5.60 129.58 6 82.39 28.80 126.38 97.59 126.38 195.97 -0.40 113.58 -72.39 215.17 -177.98 250.77 -39.59 13.20 -101.99 16.80 -140.78 7.60z"/>
  <path d="M5080.49 3825.87 c-39.99 -12.80 -53.19 -34.40 -53.19 -87.59 0 -28.40 1.60 -36.39 11.20 -55.19 13.20 -26 40.39 -47.99 74.79 -59.99 49.19 -16.80 145.18 -14 217.57 6.80 l21.60 6 -2 28.80 c-4.80 72.79 -67.99 138.78 -153.18 160.78 -28.80 7.20 -93.59 7.60 -116.78 0.40z"/>
 </g>
 <g fill="#ffd800">
  <path d="M3916.65 4348.99 c-2.40 -1.20 -34 -34 -69.99 -72.79 -35.99 -38.79 -129.58 -139.58 -207.97 -223.57 -85.59 -91.59 -143.18 -156.38 -143.18 -160.78 0 -4.40 1.20 -10.80 2.40 -14.40 8.40 -22 240.37 -148.38 432.74 -236.37 38.39 -17.20 66.79 -32 63.19 -32.80 -17.20 -3.60 -161.18 32 -241.97 59.99 -197.17 67.99 -407.14 176.38 -689.50 355.95 -91.19 57.99 -120.38 75.19 -129.18 75.19 -12.80 0 -25.60 -9.60 -25.60 -18.80 0 -11.60 25.20 -73.59 61.99 -153.18 175.18 -379.15 485.13 -745.50 812.29 -961.07 128.78 -85.19 246.77 -129.58 273.16 -103.19 10 10 14.40 75.99 11.20 178.38 -2.40 81.59 -6.40 118.38 -19.20 189.17 -10.80 56.79 -14.80 62.39 -50.39 68.79 -166.78 28.40 -391.55 130.38 -558.72 253.16 -43.19 32 -44.39 32.80 -16.40 20.40 94.39 -41.99 262.36 -101.59 373.95 -133.18 146.78 -41.19 331.15 -72.39 429.94 -72.39 21.20 0 30 -1.60 30 -4.80 0 -2.80 4.40 -33.20 9.20 -67.19 l9.20 -62.39 103.19 -137.58 c57.19 -75.99 107.19 -141.98 111.58 -146.78 8 -9.20 8.80 -9.20 127.58 -9.20 111.98 0 119.58 0.40 117.58 7.20 -2.40 8.80 -42.39 180.77 -42.39 183.17 0 0.80 41.59 1.60 91.99 1.60 50.79 0 91.99 1.20 91.99 3.20 -0.40 1.60 -11.60 51.59 -25.60 110.78 l-25.20 107.98 -88.39 1.20 -88.39 0.80 -4 15.20 c-21.20 79.99 -61.59 249.97 -66.39 278.36 -16.80 99.19 0 133.18 64.39 129.18 16 -1.20 43.59 -7.20 63.99 -14 19.60 -6.80 35.99 -11.60 36.39 -11.60 0 0.40 -8.40 42.79 -18.80 93.99 -22.80 110.38 -28.80 123.98 -63.99 141.58 -37.99 19.20 -161.98 29.60 -225.97 19.20 -75.59 -12.40 -135.18 -73.59 -146.78 -151.18 -3.60 -25.60 -2.80 -34 16.80 -129.18 11.20 -55.99 21.20 -104.79 22.40 -108.38 2 -7.20 106.79 -101.19 152.78 -136.78 13.60 -10.80 24.80 -20.40 24.80 -21.20 0 -4.40 -123.98 79.99 -199.17 135.58 -69.59 51.59 -130.38 99.19 -217.17 169.98 l-70.39 57.59 -2.80 55.59 c-7.20 156.38 -33.60 339.15 -62.39 436.34 -6.80 22.40 -10.40 28.80 -18.40 31.60 -5.60 2.40 -10.40 4 -10.80 3.60 -0.40 0 -2.80 -1.20 -5.60 -2z"/>
  <path d="M4958.51 4005.44 c-97.99 -18.40 -163.18 -74.39 -185.57 -159.18 -7.60 -28 -7.20 -92.79 0.80 -127.98 7.20 -32.40 30.40 -84.79 49.59 -112.78 36.39 -52.79 97.19 -97.19 165.98 -120.78 47.59 -16.40 81.59 -21.60 149.98 -24 86.79 -2.80 145.18 3.60 218.77 25.20 7.60 2 9.20 0 14.80 -18.80 3.60 -11.60 6.40 -24.80 6.40 -29.20 -0.40 -67.99 -91.59 -115.18 -200.37 -102.79 -47.99 5.60 -108.38 20 -155.98 37.99 -20.40 8 -37.59 13.60 -38.39 13.20 -0.80 -0.80 -9.20 -36.39 -39.19 -163.98 l-5.20 -23.20 23.20 -11.60 c141.18 -71.19 328.75 -91.19 494.73 -51.99 44.39 10.40 78.39 29.60 111.18 62.39 25.60 25.60 49.99 66.79 60.39 101.19 8.80 29.60 12.80 81.99 9.20 122.78 -4.40 51.59 -70.79 377.15 -107.19 525.53 -4.40 16.40 -8.80 34.80 -10 41.19 l-2.40 10.80 -120.78 0 -120.38 0 2.80 -18.80 c1.20 -10.80 3.60 -28.80 5.20 -40.79 l2.40 -21.60 -30 20.80 c-39.99 27.20 -90.39 50.39 -131.58 60.39 -44.79 11.20 -125.98 14 -168.38 6z m226.77 -191.97 c77.99 -20 143.98 -83.59 152.38 -147.58 l2.80 -18 -21.60 -6 c-125.98 -35.99 -233.97 -14.80 -268.36 53.19 -19.20 37.19 -12.80 86.39 13.60 104.79 26.80 19.20 76.79 24.80 121.18 13.60z"/>
  <path d="M5564.42 4002.64 c2.40 -8.80 49.19 -219.97 138.78 -627.11 24.40 -111.18 45.19 -205.17 46.39 -208.77 2 -6.80 11.60 -7.20 131.98 -7.20 79.19 0 129.58 1.60 129.58 3.60 0 4 -14.40 82.39 -18.40 99.99 -1.60 6.80 4 2.80 20.80 -15.60 57.59 -61.99 134.78 -97.19 223.17 -102.39 64.39 -3.60 61.19 -13.20 34.40 106.39 -12.80 55.99 -26 115.98 -30 133.18 l-6.80 30.80 -25.20 0 c-91.59 0 -184.77 44.79 -235.97 112.78 -45.19 59.99 -61.99 113.98 -111.58 359.15 l-25.20 121.98 -136.78 1.20 -137.18 0.80 2 -8.80z"/>
  <path d="M3078.37 3422.72 c-72.39 -55.99 -94.39 -75.19 -93.59 -81.19 1.20 -10 58.39 -28.40 150.78 -48.39 67.59 -14.40 181.57 -33.60 201.17 -33.60 17.60 0 13.60 10.80 -23.20 57.99 -18.80 24.40 -55.99 73.99 -83.19 110.78 -26.80 36.79 -50.79 67.19 -53.19 67.19 -2 0 -46.79 -32.80 -98.79 -72.79z"/>
 </g>
 <g fill="#ffffff">
  <path d="M1895.74 4218.61 c6.40 -29.20 61.19 -284.36 121.98 -567.12 60.79 -282.76 111.58 -518.73 112.78 -524.73 l2.40 -11.20 123.18 0 c67.99 0 123.58 0.40 123.58 1.20 0 0.40 -4.40 20.80 -9.60 45.19 l-9.20 44.79 26.40 -18 c90.79 -61.19 203.97 -92.79 293.16 -81.19 114.78 14.80 217.57 83.99 263.16 177.18 35.20 71.99 44.79 195.97 24 299.56 -20.40 99.99 -64.39 184.77 -132.78 257.16 -158.38 167.18 -399.14 196.77 -585.12 71.99 -15.20 -10 -28 -17.20 -29.20 -16.40 -1.60 1.60 -55.19 247.57 -76.79 351.55 l-4.40 22.80 -127.58 0 -127.18 0 11.20 -52.79z m642.71 -457.14 c62.79 -21.20 119.58 -70.79 149.18 -131.58 33.60 -67.99 36.39 -136.38 8 -196.77 -59.59 -124.78 -229.97 -139.98 -339.55 -30 -46.39 46.79 -67.99 89.19 -77.19 152.38 -8.80 59.19 11.60 122.78 52.39 163.58 54.39 53.99 127.58 68.79 207.17 42.39z"/>
  <path d="M1193.03 4005.44 c-148.38 -26.80 -263.16 -131.58 -307.56 -279.96 -9.60 -31.60 -10.80 -43.19 -11.20 -95.99 l-0.40 -59.99 75.99 -376.75 75.99 -377.15 139.18 0 c101.59 0 138.78 1.20 138.78 4.40 0 2.80 -34 162.78 -75.99 356.35 -56.79 261.96 -75.99 358.35 -75.99 378.75 0 49.99 19.60 96.79 55.59 132.38 40.79 40.39 82.79 55.99 150.78 55.99 51.19 0 91.19 -9.60 141.58 -34.80 32.40 -15.60 43.59 -24 76.39 -56.79 34 -34 40.79 -43.19 58.79 -80.39 16 -32.80 22.80 -52.79 30.80 -91.99 6 -27.60 35.60 -173.98 66.39 -325.95 30.80 -151.58 58.79 -289.96 62.39 -306.76 l6.40 -31.20 139.18 0 c76.79 0 139.58 0.80 139.58 1.60 0 11.60 -155.18 711.10 -164.38 740.30 -75.19 241.57 -289.16 417.54 -547.52 449.54 -45.19 6 -139.18 4.80 -174.78 -1.60z"/>
 </g>
</svg>