<?xml version="1.0" encoding="utf-8"?>
<!DOCTYPE svg PUBLIC "-//W3C//DTD SVG 1.0//EN" "http://www.w3.org/TR/2001/REC-SVG-20010904/DTD/svg10.dtd">
<svg version="1.0" xmlns="http://www.w3.org/2000/svg" width="7167px" height="7167px" viewBox="0 0 7167 7167" preserveAspectRatio="xMidYMid meet">
 <g fill="#ffd800">
  <path d="M3890.66 4320.60 c-14.40 -15.20 -49.99 -53.19 -79.59 -85.19 -29.60 -32 -103.99 -111.98 -165.58 -177.58 -161.18 -172.78 -151.58 -160.78 -145.58 -177.58 9.20 -24.40 229.57 -145.58 443.14 -243.17 38.39 -17.20 66.79 -32 63.19 -32.80 -19.20 -3.60 -157.58 29.60 -242.77 58.39 -204.77 69.19 -412.74 175.98 -697.90 357.15 -111.58 71.19 -119.58 75.59 -135.18 75.59 -16.80 0 -24.80 -8 -21.20 -22.40 4.80 -18 49.99 -120.78 82.39 -187.17 161.18 -327.55 416.74 -639.91 695.90 -851.08 124.78 -94.39 241.57 -158.78 315.96 -174.38 37.59 -7.60 51.59 -3.20 57.19 19.20 5.20 22.40 4.80 205.17 -0.40 251.96 -6.80 57.19 -20.40 131.18 -26.80 146.78 -3.60 8 -9.20 13.60 -14.80 14.80 -198.77 39.99 -349.15 103.19 -525.13 219.57 -72.79 47.99 -121.98 87.19 -86.79 69.19 37.99 -19.60 198.77 -80.39 289.16 -109.58 185.97 -59.99 346.75 -92.39 516.73 -103.19 39.19 -2.40 43.19 -3.60 44.79 -11.20 0.80 -4.40 5.60 -34.40 10 -65.99 l8 -57.99 109.18 -145.18 108.78 -145.18 119.18 0 c65.19 0 118.78 1.20 118.78 2.40 0 3.20 -39.19 172.78 -42.39 182.77 -2 6.40 4 6.80 89.99 6.80 63.99 0 92.39 1.20 92.39 4.40 0 2.40 -10.80 51.19 -24 108.38 -13.20 57.19 -24 104.39 -24 105.59 0 0.80 -39.99 1.60 -88.79 1.60 l-89.19 0 -28.80 117.18 c-38.79 155.58 -45.59 189.97 -46.39 232.77 -0.40 41.59 5.60 57.99 26 68.39 18.40 9.60 72.39 5.60 110.78 -7.60 16.40 -6 30.40 -10 31.20 -9.20 2.80 2.80 -35.60 179.97 -41.19 191.57 -19.60 38.79 -48.79 50.39 -147.58 58.39 -108.78 9.20 -168.38 -6 -213.57 -53.59 -29.60 -31.20 -44.79 -65.59 -47.19 -107.19 -1.60 -28.40 1.20 -46.39 18.40 -130.78 l20.40 -97.99 28.80 -27.60 c35.20 -33.20 122.38 -107.58 148.38 -126.38 29.60 -21.20 18.80 -18.80 -18 4.40 -103.19 64.39 -250.37 174.38 -435.94 325.55 l-34.40 28 -2.40 41.99 c-8.80 135.18 -18 222.37 -32.80 307.96 -12 69.59 -32.40 154.38 -39.99 167.18 -10 15.60 -22.40 11.20 -50.39 -18z"/>
  <path d="M4983.30 4007.04 c-141.18 -16 -223.57 -107.98 -214.37 -239.57 10 -145.98 111.18 -258.36 265.16 -293.96 84.39 -19.60 226.37 -15.20 308.36 9.60 l24.40 7.60 6.80 -17.60 c15.60 -40.79 0 -85.99 -37.59 -109.98 -39.99 -25.20 -57.19 -29.20 -122.78 -29.20 -67.99 0 -101.19 6.40 -181.17 34.40 -25.20 8.80 -45.99 15.20 -46.39 14.40 -1.20 -1.60 -42.39 -176.78 -42.39 -180.37 0 -5.60 58.39 -32 103.59 -46.79 123.18 -41.19 257.16 -49.19 385.15 -23.60 49.59 10 71.59 18 100.39 37.19 66.39 43.99 106.79 126.38 106.79 217.57 0 34.40 -7.20 80.79 -32.40 206.37 -16.40 81.59 -59.19 277.96 -77.59 354.35 -5.20 23.20 -10 43.19 -10 45.19 0 1.60 -53.59 2.80 -119.18 2.80 l-119.18 0 5.20 -38.79 c2.80 -21.20 4.80 -39.19 4 -39.59 -0.80 -0.80 -12.80 6.80 -27.20 16.80 -58.39 41.59 -121.58 65.19 -194.77 73.19 -44.79 4.80 -41.99 4.80 -84.79 0z m189.97 -189.57 c82.39 -15.60 152.78 -77.99 165.18 -146.78 2 -10 2.40 -20.40 1.20 -22.80 -1.60 -2.40 -18.80 -8.40 -38.39 -13.20 -29.20 -7.20 -47.19 -8.80 -95.99 -9.20 -53.59 0 -62.79 0.80 -85.19 9.60 -26.80 10 -60.79 37.59 -70.79 56.39 -19.60 37.99 -15.20 82.79 10 105.59 13.60 12.40 23.60 16.80 53.99 23.60 15.20 3.60 29.20 2.80 59.99 -3.20z"/>
  <path d="M5567.22 4005.04 c0 -3.60 5.20 -30 12 -59.19 6.40 -28.80 35.99 -163.18 65.99 -298.36 30 -135.18 66.39 -300.36 81.19 -366.75 l26.80 -121.18 128.38 0 128.38 0 -7.20 41.19 c-4.40 22.40 -8.80 48.79 -10.40 58.79 l-2.40 18 15.20 -18 c59.99 -71.99 148.38 -111.98 246.77 -111.98 39.59 0 39.99 0 37.99 9.20 -1.20 4.80 -14.40 63.99 -29.20 131.58 l-27.20 122.38 -11.60 2.40 c-6.40 1.20 -21.20 2.40 -32.40 2.40 -59.19 0 -136.78 32.40 -183.97 76.39 -69.59 65.19 -89.99 118.38 -142.38 377.55 -13.20 65.99 -25.20 124.78 -26.40 131.18 l-2.40 10.80 -133.58 0 c-119.98 0 -133.58 -0.80 -133.58 -6.40z"/>
  <path d="M3077.57 3419.92 c-50.39 -39.59 -92.39 -73.59 -93.19 -75.59 -2 -6.40 16.80 -14.40 63.99 -28 87.59 -25.20 288.76 -60.79 296.76 -52.79 2.80 2.80 2.80 6 0.40 9.60 -78.79 106.79 -164.38 216.77 -169.58 217.17 -3.60 0.80 -47.59 -31.20 -98.39 -70.39z"/>
 </g>
 <g fill="#ffffff">
  <path d="M1888.54 4262.61 c0.80 -5.20 56.39 -264.36 123.58 -575.92 l121.58 -567.12 121.18 0 c66.39 0 120.78 1.60 120.78 3.20 0 1.60 -3.60 20.80 -8.40 42.39 -4.40 21.60 -7.60 39.99 -6.40 40.79 0.80 0.80 14 -6.80 29.20 -16.80 32.80 -22 69.19 -40.39 107.58 -54.79 57.19 -21.20 75.99 -24.40 143.98 -24.40 63.19 -0.40 64.39 0 105.19 14 55.99 20 99.59 46.79 138.78 85.59 50.39 50.39 71.99 94.79 84.79 175.58 7.60 49.59 5.20 156.78 -4.80 202.37 -39.59 179.97 -163.18 323.95 -323.95 377.55 -129.58 43.19 -271.56 24.40 -388.35 -51.59 -18.80 -12 -34.40 -22 -35.20 -22 -0.80 0 -2.40 6.80 -3.60 15.20 -1.20 8 -6 32 -10.80 52.79 -4.40 20.80 -10 45.99 -12 55.99 -2 10 -7.20 35.20 -12 55.99 -4.40 20.80 -12.80 59.59 -18.40 85.99 -5.60 26.40 -13.20 62.39 -16.80 79.99 l-6.80 32 -125.58 1.20 -125.18 0.80 1.60 -8.80z m632.71 -493.53 c71.59 -18.40 132.78 -68.79 168.38 -137.98 34.80 -68.39 35.20 -153.58 0.80 -212.37 -12.80 -22 -52.39 -59.59 -73.99 -70.79 -146.38 -74.79 -341.15 58.79 -340.75 233.97 0 54.79 17.20 98.39 53.19 136.78 36.79 38.79 77.99 56.39 134.38 56.39 18.40 0.40 44.39 -2.40 57.99 -6z"/>
  <path d="M1216.23 4007.04 c-162.78 -18.80 -293.96 -136.38 -332.75 -298.36 -6.80 -27.20 -8.40 -46.79 -8.40 -87.19 0.40 -50.79 2 -59.19 75.99 -425.94 l75.19 -373.95 138.38 -1.20 138.38 -0.80 -3.20 14.80 c-2 8.40 -24.40 112.38 -49.99 231.17 -25.60 118.78 -49.99 232.37 -54.39 251.96 -32 145.98 -47.59 223.97 -47.59 236.77 0 8.40 2.80 26.80 6 40.79 16 66.39 63.59 118.78 129.58 141.18 37.19 12.40 108.78 12.40 153.58 0 105.99 -30 191.57 -112.38 220.37 -213.17 5.60 -19.20 37.59 -173.98 119.58 -580.32 l24.80 -123.18 137.58 0 137.58 0 -2.40 13.20 c-1.20 6.80 -6 28.80 -10.40 48.79 -12.80 58.79 -54.79 252.36 -78.79 361.95 -51.19 237.97 -67.19 303.96 -80.39 339.95 -68.39 183.57 -213.17 325.55 -395.94 389.15 -91.59 32 -201.97 44.79 -292.76 34.40z"/>
 </g>
</svg>